<svg width="16" height="16" viewBox="0 0 16 16" fill="none" xmlns="http://www.w3.org/2000/svg">
<path d="M9.87373 7.99496L15.6023 2.27967C15.8532 2.0288 15.9941 1.68856 15.9941 1.33378C15.9941 0.979004 15.8532 0.638758 15.6023 0.387893C15.3515 0.137028 15.0112 -0.00390625 14.6565 -0.00390625C14.3017 -0.00390625 13.9614 0.137028 13.7106 0.387893L7.99528 6.11651L2.27999 0.387893C2.02912 0.137028 1.68888 -0.00390625 1.3341 -0.00390625C0.979324 -0.00390625 0.639078 0.137028 0.388214 0.387893C0.137349 0.638758 -0.00358578 0.979004 -0.00358578 1.33378C-0.00358578 1.68856 0.137349 2.0288 0.388214 2.27967L6.11683 7.99496L0.388214 13.7102C0.263345 13.8341 0.164235 13.9814 0.0965991 14.1438C0.0289632 14.3061 -0.00585938 14.4803 -0.00585938 14.6561C-0.00585938 14.832 0.0289632 15.0061 0.0965991 15.1685C0.164235 15.3308 0.263345 15.4782 0.388214 15.602C0.512062 15.7269 0.659409 15.826 0.821754 15.8936C0.984099 15.9613 1.15823 15.9961 1.3341 15.9961C1.50997 15.9961 1.6841 15.9613 1.84645 15.8936C2.00879 15.826 2.15614 15.7269 2.27999 15.602L7.99528 9.87341L13.7106 15.602C13.8344 15.7269 13.9818 15.826 14.1441 15.8936C14.3065 15.9613 14.4806 15.9961 14.6565 15.9961C14.8323 15.9961 15.0065 15.9613 15.1688 15.8936C15.3311 15.826 15.4785 15.7269 15.6023 15.602C15.7272 15.4782 15.8263 15.3308 15.894 15.1685C15.9616 15.0061 15.9964 14.832 15.9964 14.6561C15.9964 14.4803 15.9616 14.3061 15.894 14.1438C15.8263 13.9814 15.7272 13.8341 15.6023 13.7102L9.87373 7.99496Z" fill="#FF611E"/>
</svg>
